<?xml version="1.0" encoding="utf-8"?>
<?xml-stylesheet type="text/xsl" href="rss1.xsl"?>
<rss version="2.0" xmlns:atom="http://www.w3.org/2005/Atom" xmlns:content="http://purl.org/rss/1.0/modules/content/" xmlns:dc="http://purl.org/dc/elements/1.1/" xmlns:media="http://search.yahoo.com/mrss/">
<channel>
 <title>sharemania</title>
 <link>http://www.sharemania.us/</link>
 <atom:link href="http://www.gettyimg.com/" rel="self" type="application/rss+xml" />

 
                <item>
                <title><![CDATA[【Music Videos】PACK - BLACKPINK - AS IF IT'S YOUR LAST (MV) | 4K | AI Master | LOSSLESS &amp; Dolby Atmos | w/lyrics]]></title>
                <link><![CDATA[https://sharemania.us/threads/blackpink-as-if-its-your-last-mv-4k-ai-master-lossless-dolby-atmos-w-lyrics.282231/]]></link>
                <description><![CDATA[<article>
				<blockquote class="messageText SelectQuoteContainer ugc baseHtml">
					
					<div style="text-align: center"><a href="https://www.youtube.com/watch?v=Amq-qlqbjYA" target="_blank" class="externalLink" rel="nofollow"><img src="https://a5.mzstatic.com/us/r1000/0/Video127/v4/b9/1c/cd/b91ccd13-8300-dee0-8dd5-aecfae648a06/KRZ351700022.jpg" class="bbCodeImage LbImage" alt="[​IMG]" data-url="https://a5.mzstatic.com/us/r1000/0/Video127/v4/b9/1c/cd/b91ccd13-8300-dee0-8dd5-aecfae648a06/KRZ351700022.jpg"></a><br>
<img src="https://bendodson.s3-eu-west-1.amazonaws.com/apple-music/lossless.png" class="bbCodeImage LbImage" alt="[​IMG]" data-url="https://bendodson.s3-eu-west-1.amazonaws.com/apple-music/lossless.png" style=""><img src="https://bendodson.s3-eu-west-1.amazonaws.com/apple-music/dolby-atmos.png" class="bbCodeImage LbImage" alt="[​IMG]" data-url="https://bendodson.s3-eu-west-1.amazonaws.com/apple-music/dolby-atmos.png" style=""><img src="https://i.imgur.com/5vuWLmR.png" class="bbCodeImage LbImage" alt="[​IMG]" data-url="https://i.imgur.com/5vuWLmR.png" style=""><img src="https://i.imgur.com/KhPaTAO.png" class="bbCodeImage LbImage" alt="[​IMG]" data-url="https://i.imgur.com/KhPaTAO.png" style=""><br>
<img src="https://i.imgur.com/L1UCKrs.jpeg" class="bbCodeImage LbImage" alt="[​IMG]" data-url="https://i.imgur.com/L1UCKrs.jpeg" style=""><br>
<span style="font-size: 15px"><b>Artist:</b> BLACKPINK<br>
<b>Album: </b>AS IF IT'S YOUR LAST - Single<br>
<b>MV:</b> AS IF IT'S YOUR LAST<br>
<b>Year:</b> 2017<br>
<b>Source: <span style="color: rgb(255, 0, 0)"><span style="text-decoration: underline">Apple Music</span></span></b><br>
<b><b>Genre:</b> </b>K-Pop<br>
<b>Format:</b> MKV | AVC / HEVC | PCM, EAC3-JOC<br>
<b>Overall Bitrate: </b>240 &amp; 60 Mb/s<br>
<i>Inc. Subs: Korean &amp; Romanized.</i><br>
<br>
<i>Atmos Mix by <a href="https://sharemania.us/members/197863/" class="username" data-user="197863, @andammm777">@andammm777</a></i></span><br>
<img src="https://i.imgur.com/L1UCKrs.jpeg" class="bbCodeImage LbImage" alt="[​IMG]" data-url="https://i.imgur.com/L1UCKrs.jpeg" style=""><br>
<b>AI MASTER<br>
H.264 | AVC | 2160p | PCM 16bit/44.1kHz | Dolby Atmos | SOFT SUBS .ASS</b><br>
<img src="https://i.imgur.com/rrVTg8O.jpeg" class="bbCodeImage LbImage" alt="[​IMG]" data-url="https://i.imgur.com/rrVTg8O.jpeg" style=""><br>
<b><span style="text-decoration: underline">NOTES:</span></b><br>



<div class="bbCodeBlock bbCodeQuote">
	<aside>
		
		<blockquote class="quoteContainer"><div class="quote">V: Based on Vimeo &amp; Apple Music! 1080p Ver.<br>
Did my best considering that the sources had such a low quality, so hope y'all like it...<br>
<br>
A: Atmos Mix by @andammm777 go download the Atmos track on his post linked bellow!</div><div class="quoteExpand">Click to expand...</div></blockquote>
	</aside>
</div><b><span style="text-decoration: underline">MEDIA INFO:</span></b><br>



<div class="ToggleTriggerAnchor bbCodeSpoilerContainer">
	<button type="button" class="button bbCodeSpoilerButton ToggleTrigger Tooltip JsOnly" data-target="&gt; .SpoilerTarget"><span>Spoiler</span></button>
	<div class="SpoilerTarget bbCodeSpoilerText">Format                         : Matroska<br>
Format version                 : Version 4<br>
File size                      : 5.99 GiB<br>
Duration                       : 3 min 36 s<br>
Overall bit rate               : 237 Mb/s<br>
Frame rate                     : 23.976 FPS<br>
Movie name                     : As If It's Your Last<br>
Track name/Position            : 1<br>
Track name/Total               : 1<br>
Encoded by                     : ivan26XDead<br>
Released date                  : 2017-06-22<br>
Recorded date                  : 2017-06-22<br>
Encoded date                   : 2025-08-21 10:14:34 UTC<br>
Writing application            : mkvmerge v92.0 ('Everglow') 64-bit<br>
Writing library                : libebml v1.4.5 + libmatroska v1.7.1<br>
Copyright                      : ℗ 2017 YG Entertainment<br>
Cover                          : Yes<br>
Comment                        : Official Music Video<br>
Attachments                    : cover.jpg<br>
AIENHANCEDBY                   : ivan26XDead<br>
ALBUMARTISTSORT                : BLACKPINK<br>
ARTIST                         : BLACKPINK<br>
ARTISTSORT                     : BLACKPINK<br>
ATMOSENGENEER                  : andammm777<br>
GENRE                          : K-pop<br>
PERFORMER                      : BLACKPINK<br>
PUBLISHER                      : YG Entertainment<br>
SORT_WITH                      : As If It's Your Last<br>
SUBTITLESBY                    : ivan26XDead<br>
Video<br>
ID                             : 1<br>
Format                         : AVC<br>
Format/Info                    : Advanced Video Codec<br>
Format profile                 : Main@L5.1<br>
Format settings                : CABAC / 4 Ref Frames<br>
Format settings, CABAC         : Yes<br>
Format settings, Reference fra : 4 frames<br>
Codec ID                       : V_MPEG4/ISO/AVC<br>
Duration                       : 3 min 36 s<br>
Bit rate                       : 235 Mb/s<br>
Width                          : 3 840 pixels<br>
Height                         : 2 160 pixels<br>
Display aspect ratio           : 16:9<br>
Frame rate mode                : Constant<br>
Frame rate                     : 23.976 (24000/1001) FPS<br>
Color space                    : YUV<br>
Chroma subsampling             : 4:2:0<br>
Bit depth                      : 8 bits<br>
Scan type                      : Progressive<br>
Bits/(Pixel*Frame)             : 1.181<br>
Stream size                    : 5.93 GiB (99%)<br>
Title                          : -ivan26XDead<br>
Language                       : Korean<br>
Default                        : Yes<br>
Forced                         : No<br>
Color range                    : Limited<br>
Color primaries                : BT.709<br>
Transfer characteristics       : BT.709<br>
Matrix coefficients            : BT.709<br>
Audio #1<br>
ID                             : 2<br>
Format                         : PCM<br>
Format settings                : Little / Signed<br>
Codec ID                       : A_PCM/INT/LIT<br>
Duration                       : 3 min 36 s<br>
Bit rate mode                  : Constant<br>
Bit rate                       : 1 536 kb/s<br>
Channel(s)                     : 2 channels<br>
Sampling rate                  : 48.0 kHz<br>
Frame rate                     : 25.000 FPS (1920 SPF)<br>
Bit depth                      : 16 bits<br>
Stream size                    : 39.7 MiB (1%)<br>
Title                          : Master<br>
Language                       : Korean<br>
Default                        : Yes<br>
Forced                         : No<br>
Audio #2<br>
ID                             : 3<br>
Format                         : E-AC-3 JOC<br>
Format/Info                    : Enhanced AC-3 with Joint Object Coding<br>
Commercial name                : Dolby Digital Plus with Dolby Atmos<br>
Codec ID                       : A_EAC3<br>
Duration                       : 3 min 36 s<br>
Bit rate mode                  : Constant<br>
Bit rate                       : 768 kb/s<br>
Channel(s)                     : 6 channels<br>
Channel layout                 : L R C LFE Ls Rs<br>
Sampling rate                  : 48.0 kHz<br>
Frame rate                     : 31.250 FPS (1536 SPF)<br>
Compression mode               : Lossy<br>
Stream size                    : 19.8 MiB (0%)<br>
Title                          : Dolby Atmos ◗◖<br>
Language                       : Korean<br>
Service kind                   : Complete Main<br>
Default                        : Yes<br>
Forced                         : No<br>
Complexity index               : 16<br>
Number of dynamic objects      : 15<br>
Bed channel count              : 1 channel<br>
Bed channel configuration      : LFE<br>
Dialog Normalization           : -19 dB<br>
compr                          : -0.28 dB<br>
dmixmod                        : Lo/Ro<br>
ltrtcmixlev                    : -3.0 dB<br>
ltrtsurmixlev                  : -3.0 dB<br>
lorocmixlev                    : -3.0 dB<br>
lorosurmixlev                  : -3.0 dB<br>
dialnorm_Average               : -19 dB<br>
dialnorm_Minimum               : -19 dB<br>
dialnorm_Maximum               : -19 dB<br>
Text #1<br>
ID                             : 4<br>
Format                         : ASS<br>
Codec ID                       : S_TEXT/ASS<br>
Codec ID/Info                  : Advanced Sub Station Alpha<br>
Duration                       : 3 min 31 s<br>
Bit rate                       : 138 b/s<br>
Frame rate                     : 0.312 FPS<br>
Count of elements              : 66<br>
Compression mode               : Lossless<br>
Stream size                    : 3.58 KiB (0%)<br>
Language                       : Korean<br>
Default                        : Yes<br>
Forced                         : No<br>
Text #2<br>
ID                             : 5<br>
Format                         : ASS<br>
Codec ID                       : S_TEXT/ASS<br>
Codec ID/Info                  : Advanced Sub Station Alpha<br>
Duration                       : 3 min 31 s<br>
Bit rate                       : 142 b/s<br>
Frame rate                     : 0.312 FPS<br>
Count of elements              : 66<br>
Compression mode               : Lossless<br>
Stream size                    : 3.69 KiB (0%)<br>
Title                          : Romanized<br>
Language                       : Korean<br>
Default                        : Yes<br>
Forced                         : No</div>
</div><b><span style="text-decoration: underline">SCREENSHOTS:</span></b><br>



<div class="ToggleTriggerAnchor bbCodeSpoilerContainer">
	<button type="button" class="button bbCodeSpoilerButton ToggleTrigger Tooltip JsOnly" data-target="&gt; .SpoilerTarget"><span>Spoiler</span></button>
	<div class="SpoilerTarget bbCodeSpoilerText"><img src="https://i.imgur.com/ES2DKAa.jpeg" class="bbCodeImage LbImage" alt="[​IMG]" data-url="https://i.imgur.com/ES2DKAa.jpeg" style=""><br>
<img src="https://i.imgur.com/kXGFLB8.jpeg" class="bbCodeImage LbImage" alt="[​IMG]" data-url="https://i.imgur.com/kXGFLB8.jpeg" style=""><br>
<img src="https://i.imgur.com/BIxj1mo.jpeg" class="bbCodeImage LbImage" alt="[​IMG]" data-url="https://i.imgur.com/BIxj1mo.jpeg" style=""><br>
<img src="https://i.imgur.com/C3cPT6w.jpeg" class="bbCodeImage LbImage" alt="[​IMG]" data-url="https://i.imgur.com/C3cPT6w.jpeg" style=""><br>
<img src="https://i.imgur.com/wxfahEK.jpeg" class="bbCodeImage LbImage" alt="[​IMG]" data-url="https://i.imgur.com/wxfahEK.jpeg" style=""><br>
<img src="https://i.imgur.com/UCAM3NM.jpeg" class="bbCodeImage LbImage" alt="[​IMG]" data-url="https://i.imgur.com/UCAM3NM.jpeg" style=""><br>
<img src="https://i.imgur.com/2Rg2FFR.jpeg" class="bbCodeImage LbImage" alt="[​IMG]" data-url="https://i.imgur.com/2Rg2FFR.jpeg" style=""><br>
<img src="https://i.imgur.com/pN4EtWs.jpeg" class="bbCodeImage LbImage" alt="[​IMG]" data-url="https://i.imgur.com/pN4EtWs.jpeg" style=""><br>
<img src="https://i.imgur.com/5FtYQhT.jpeg" class="bbCodeImage LbImage" alt="[​IMG]" data-url="https://i.imgur.com/5FtYQhT.jpeg" style=""><br>
<img src="https://i.imgur.com/f7lvgSu.jpeg" class="bbCodeImage LbImage" alt="[​IMG]" data-url="https://i.imgur.com/f7lvgSu.jpeg" style=""></div>
</div><br>
<img src="https://i.imgur.com/L1UCKrs.jpeg" class="bbCodeImage LbImage" alt="[​IMG]" data-url="https://i.imgur.com/L1UCKrs.jpeg" style=""><br>
<b>HEVC<br>
H.265 | HEVC | 2160p | PCM 16bit/44.1kHz | Dolby Atmos | SOFT SUBS .ASS</b><br>
<img src="https://i.imgur.com/3ySiKCM.jpeg" class="bbCodeImage LbImage" alt="[​IMG]" data-url="https://i.imgur.com/3ySiKCM.jpeg" style=""><br>
<span style="text-decoration: underline"><b><i>MEDIA INFO:</i></b></span><br>



<div class="ToggleTriggerAnchor bbCodeSpoilerContainer">
	<button type="button" class="button bbCodeSpoilerButton ToggleTrigger Tooltip JsOnly" data-target="&gt; .SpoilerTarget"><span>Spoiler</span></button>
	<div class="SpoilerTarget bbCodeSpoilerText">Format                         : Matroska<br>
Format version                 : Version 4<br>
File size                      : 1.54 GiB<br>
Duration                       : 3 min 36 s<br>
Overall bit rate               : 61.0 Mb/s<br>
Frame rate                     : 23.976 FPS<br>
Movie name                     : As If It's Your Last<br>
Track name/Position            : 1<br>
Track name/Total               : 1<br>
Encoded by                     : ivan26XDead<br>
Released date                  : 2017-06-22<br>
Recorded date                  : 2017-06-22<br>
Encoded date                   : 2025-08-21 10:17:05 UTC<br>
Writing application            : mkvmerge v92.0 ('Everglow') 64-bit<br>
Writing library                : libebml v1.4.5 + libmatroska v1.7.1<br>
Copyright                      : ℗ 2017 YG Entertainment<br>
Cover                          : Yes<br>
Comment                        : Official Music Video<br>
Attachments                    : cover.jpg<br>
AIENHANCEDBY                   : ivan26XDead<br>
ALBUMARTISTSORT                : BLACKPINK<br>
ARTIST                         : BLACKPINK<br>
ARTISTSORT                     : BLACKPINK<br>
ATMOSENGENEER                  : andammm777<br>
GENRE                          : K-pop<br>
PERFORMER                      : BLACKPINK<br>
PUBLISHER                      : YG Entertainment<br>
SORT_WITH                      : As If It's Your Last<br>
SUBTITLESBY                    : ivan26XDead<br>
Video<br>
ID                             : 1<br>
Format                         : HEVC<br>
Format/Info                    : High Efficiency Video Coding<br>
Format profile                 : Main 10@L5.1@High<br>
Codec ID                       : V_MPEGH/ISO/HEVC<br>
Duration                       : 3 min 36 s<br>
Bit rate                       : 58.6 Mb/s<br>
Width                          : 3 840 pixels<br>
Height                         : 2 160 pixels<br>
Display aspect ratio           : 16:9<br>
Frame rate mode                : Constant<br>
Frame rate                     : 23.976 (24000/1001) FPS<br>
Color space                    : YUV<br>
Chroma subsampling             : 4:2:0<br>
Bit depth                      : 10 bits<br>
Bits/(Pixel*Frame)             : 0.295<br>
Stream size                    : 1.48 GiB (96%)<br>
Title                          : -ivan26XDead<br>
Language                       : Korean<br>
Default                        : Yes<br>
Forced                         : No<br>
Color range                    : Limited<br>
Color primaries                : BT.709<br>
Transfer characteristics       : BT.709<br>
Matrix coefficients            : BT.709<br>
Audio #1<br>
ID                             : 2<br>
Format                         : PCM<br>
Format settings                : Little / Signed<br>
Codec ID                       : A_PCM/INT/LIT<br>
Duration                       : 3 min 36 s<br>
Bit rate mode                  : Constant<br>
Bit rate                       : 1 536 kb/s<br>
Channel(s)                     : 2 channels<br>
Sampling rate                  : 48.0 kHz<br>
Frame rate                     : 25.000 FPS (1920 SPF)<br>
Bit depth                      : 16 bits<br>
Stream size                    : 39.7 MiB (3%)<br>
Title                          : Master<br>
Language                       : Korean<br>
Default                        : Yes<br>
Forced                         : No<br>
Audio #2<br>
ID                             : 3<br>
Format                         : E-AC-3 JOC<br>
Format/Info                    : Enhanced AC-3 with Joint Object Coding<br>
Commercial name                : Dolby Digital Plus with Dolby Atmos<br>
Codec ID                       : A_EAC3<br>
Duration                       : 3 min 36 s<br>
Bit rate mode                  : Constant<br>
Bit rate                       : 768 kb/s<br>
Channel(s)                     : 6 channels<br>
Channel layout                 : L R C LFE Ls Rs<br>
Sampling rate                  : 48.0 kHz<br>
Frame rate                     : 31.250 FPS (1536 SPF)<br>
Compression mode               : Lossy<br>
Stream size                    : 19.8 MiB (1%)<br>
Title                          : Dolby Atmos ◗◖<br>
Language                       : Korean<br>
Service kind                   : Complete Main<br>
Default                        : Yes<br>
Forced                         : No<br>
Complexity index               : 16<br>
Number of dynamic objects      : 15<br>
Bed channel count              : 1 channel<br>
Bed channel configuration      : LFE<br>
Dialog Normalization           : -19 dB<br>
compr                          : -0.28 dB<br>
dmixmod                        : Lo/Ro<br>
ltrtcmixlev                    : -3.0 dB<br>
ltrtsurmixlev                  : -3.0 dB<br>
lorocmixlev                    : -3.0 dB<br>
lorosurmixlev                  : -3.0 dB<br>
dialnorm_Average               : -19 dB<br>
dialnorm_Minimum               : -19 dB<br>
dialnorm_Maximum               : -19 dB<br>
Text #1<br>
ID                             : 4<br>
Format                         : ASS<br>
Codec ID                       : S_TEXT/ASS<br>
Codec ID/Info                  : Advanced Sub Station Alpha<br>
Duration                       : 3 min 31 s<br>
Bit rate                       : 138 b/s<br>
Frame rate                     : 0.312 FPS<br>
Count of elements              : 66<br>
Compression mode               : Lossless<br>
Stream size                    : 3.58 KiB (0%)<br>
Language                       : Korean<br>
Default                        : Yes<br>
Forced                         : No<br>
Text #2<br>
ID                             : 5<br>
Format                         : ASS<br>
Codec ID                       : S_TEXT/ASS<br>
Codec ID/Info                  : Advanced Sub Station Alpha<br>
Duration                       : 3 min 31 s<br>
Bit rate                       : 142 b/s<br>
Frame rate                     : 0.312 FPS<br>
Count of elements              : 66<br>
Compression mode               : Lossless<br>
Stream size                    : 3.69 KiB (0%)<br>
Title                          : Romanized<br>
Language                       : Korean<br>
Default                        : Yes<br>
Forced                         : No</div>
</div><img src="https://i.imgur.com/L1UCKrs.jpeg" class="bbCodeImage LbImage" alt="[​IMG]" data-url="https://i.imgur.com/L1UCKrs.jpeg" style=""><b><i><span style="text-decoration: underline"><span style="font-size: 18px">DOWNLOAD:</span></span></i></b><br>




<div class="bbCodeBlock bbCodeVfcHH HiddenContent">
	<div class="attribution type">Hidden Content:</div>
	<blockquote>You must reply before you can see the hidden data contained here.</blockquote>
</div><b><i><span style="text-decoration: underline"><span style="font-size: 12px">Download the single track in Dolby Atmos made by <a href="https://sharemania.us/members/197863/" class="username" data-user="197863, @andammm777">@andammm777</a></span></span></i></b><br>
<span style="font-size: 12px"><a href="https://sharemania.us/threads/blackpink-as-if-its-your-last-v2-eac3-joc-16bit-48khz-768kbps-5-1s-ac4-48khz-320kbps-2-0.281462" class="internalLink">CLICK HERE TO GO TO THE POST</a></span><br>
<img src="https://i.imgur.com/L1UCKrs.jpeg" class="bbCodeImage LbImage" alt="[​IMG]" data-url="https://i.imgur.com/L1UCKrs.jpeg" style=""><br>
<img src="https://i.imgur.com/wg04oXQ.jpeg" class="bbCodeImage LbImage" alt="[​IMG]" data-url="https://i.imgur.com/wg04oXQ.jpeg" style="">​</div>
					<div class="messageTextEndMarker">&nbsp;</div>
				</blockquote>
			</article>]]></description>
                <author><![CDATA[ivan26XDead]]></author>
                </item>

                </channel></rss>